<svg width="797.701" height="103.4" viewBox="0 0 797.701 103.4" xmlns="http://www.w3.org/2000/svg"><g id="svgGroup" stroke-linecap="round" fill-rule="evenodd" font-size="9pt" stroke="#000" stroke-width="0.25mm" fill="none" style="stroke:#000;stroke-width:0.25mm;fill:black"><path d="M 320.501 33.3 L 322.601 33.1 L 322.701 33.1 A 1.004 1.004 0 0 1 323.12 33.185 Q 323.34 33.285 323.501 33.5 Q 323.801 33.9 323.901 34.4 L 323.901 34.45 L 323.901 34.6 A 3.087 3.087 0 0 1 323.806 35.338 Q 323.723 35.674 323.569 36.038 A 6.323 6.323 0 0 1 323.401 36.4 Q 322.933 37.338 322.024 38.275 A 11.051 11.051 0 0 1 321.901 38.4 Q 321.401 39 320.751 39.6 Q 320.101 40.2 319.401 40.7 Q 317.801 41.9 315.951 42.8 Q 314.101 43.7 312.201 44.4 A 22.135 22.135 0 0 1 309.368 45.199 A 19.942 19.942 0 0 1 308.851 45.3 A 19.461 19.461 0 0 1 307.169 45.534 A 14.83 14.83 0 0 1 305.801 45.6 A 12.926 12.926 0 0 1 296.324 41.583 A 16.887 16.887 0 0 1 296.001 41.25 Q 291.901 36.9 291.901 30.9 Q 291.901 23.2 298.451 17.35 Q 305.001 11.5 313.801 11.5 L 314.651 11.5 L 315.501 11.5 A 31.205 31.205 0 0 1 320.427 12.194 A 37.602 37.602 0 0 1 322.801 12.8 A 52.945 52.945 0 0 1 325.82 13.78 Q 328.476 14.725 331.601 16.1 Q 334.285 17.263 336.088 17.906 A 34.31 34.31 0 0 0 336.501 18.05 Q 338.338 18.679 339.895 18.886 A 12.836 12.836 0 0 0 340.001 18.9 Q 340.601 18.9 341.151 18.95 Q 341.701 19 342.301 19 L 343.151 19 L 343.901 19 A 0.952 0.952 0 0 1 344.237 18.906 A 1.169 1.169 0 0 1 344.351 18.9 Q 344.601 18.9 344.901 18.8 Q 345.451 18.731 345.907 18.686 A 25.455 25.455 0 0 1 346.301 18.65 Q 346.901 18.6 347.301 18.6 A 3.69 3.69 0 0 1 348.169 18.696 A 2.421 2.421 0 0 1 349.451 19.45 A 2.833 2.833 0 0 1 350.047 20.574 Q 350.168 21.001 350.194 21.509 A 5.627 5.627 0 0 1 350.201 21.8 L 350.201 22.15 L 350.201 22.5 Q 350.125 22.806 349.99 23.289 A 65.938 65.938 0 0 1 349.901 23.6 Q 349.701 24.3 349.001 26.4 Q 348.743 27.174 348.523 28.169 A 25.975 25.975 0 0 0 348.451 28.5 Q 348.201 29.7 348.101 30.9 Q 348.001 31.7 347.951 32.4 Q 347.901 33.1 347.901 33.8 A 26.187 26.187 0 0 0 347.913 34.553 Q 347.936 35.333 348.001 36.35 Q 348.101 37.9 348.201 39.8 Q 348.27 40.625 348.315 41.308 A 56.878 56.878 0 0 1 348.351 41.9 Q 348.401 42.8 348.401 43.6 Q 348.501 44.4 348.501 45.2 L 348.501 47.1 Q 350.001 44.2 351.351 41.8 A 72.159 72.159 0 0 1 353.404 38.369 A 63.296 63.296 0 0 1 354.101 37.3 Q 356.101 34.1 358.251 31.55 Q 360.401 29 362.901 26.6 L 363.101 26.4 L 363.301 26.2 Q 364.101 25.4 365.001 24.65 Q 365.901 23.9 366.701 23.2 Q 370.701 19.9 374.501 18 A 25.045 25.045 0 0 1 376.732 17.009 Q 379.104 16.1 380.901 16.1 A 4.91 4.91 0 0 1 381.969 16.21 Q 382.759 16.386 383.342 16.843 A 3.132 3.132 0 0 1 383.351 16.85 A 2.435 2.435 0 0 1 384.262 18.458 A 3.601 3.601 0 0 1 384.301 19 L 384.301 19.35 L 384.301 19.7 A 3.758 3.758 0 0 1 384.191 20.164 Q 384.12 20.399 384.014 20.662 A 8.987 8.987 0 0 1 383.801 21.15 Q 383.409 21.985 382.437 23.639 A 88.698 88.698 0 0 1 382.401 23.7 A 27.238 27.238 0 0 0 381.937 24.506 Q 381.688 24.956 381.424 25.466 A 49.973 49.973 0 0 0 381.101 26.1 Q 380.401 27.5 379.701 29.1 Q 379.401 29.8 379.051 30.6 Q 378.701 31.4 378.401 32.1 Q 377.901 33.2 377.501 34.3 A 73.15 73.15 0 0 1 376.901 35.894 A 64.507 64.507 0 0 1 376.701 36.4 Q 375.301 40.135 374.511 43.259 A 45.865 45.865 0 0 0 374.401 43.7 A 45.788 45.788 0 0 0 373.32 50 A 42.374 42.374 0 0 0 373.301 50.2 Q 373.301 51 373.251 51.8 Q 373.201 52.6 373.201 53.4 A 20.179 20.179 0 0 0 373.314 55.607 Q 373.437 56.721 373.694 57.652 A 8.656 8.656 0 0 0 374.251 59.15 A 5.635 5.635 0 0 0 374.882 60.173 Q 375.793 61.328 377.101 61.4 A 2.083 2.083 0 0 0 377.444 61.37 A 2.796 2.796 0 0 0 377.751 61.3 Q 378.101 61.2 378.5 61.001 A 4.263 4.263 0 0 0 378.501 61 Q 379.101 60.8 379.601 60.65 A 7.516 7.516 0 0 1 379.819 60.588 Q 380.124 60.507 380.278 60.501 A 0.603 0.603 0 0 1 380.301 60.5 A 1.49 1.49 0 0 1 381.453 61.015 A 2.068 2.068 0 0 1 381.601 61.2 Q 382.073 61.861 382.1 62.877 A 4.694 4.694 0 0 1 382.101 63 Q 382.101 63.5 382.051 64 Q 382.001 64.5 381.901 65 A 18.175 18.175 0 0 1 378.362 73.452 A 23.505 23.505 0 0 1 376.551 75.6 A 21.732 21.732 0 0 1 372.901 78.727 A 15.107 15.107 0 0 1 366.701 81.2 Q 366.301 81.2 365.901 81.25 Q 365.501 81.3 365.101 81.3 A 8.447 8.447 0 0 1 361.802 80.677 Q 359.768 79.824 358.351 77.8 Q 356.423 75.046 356.013 70.62 A 27.29 27.29 0 0 1 355.901 68.1 L 355.901 67.5 L 355.901 66.9 A 49.296 49.296 0 0 1 357.769 54.945 A 56.407 56.407 0 0 1 358.451 52.7 A 69.208 69.208 0 0 1 360.996 46.132 Q 362.458 42.836 364.374 39.291 A 122.031 122.031 0 0 1 365.701 36.9 Q 365.101 37.4 364.551 37.85 A 6.718 6.718 0 0 0 363.866 38.493 A 5.764 5.764 0 0 0 363.601 38.8 A 4.891 4.891 0 0 0 362.895 39.451 A 5.419 5.419 0 0 0 362.851 39.5 A 13.849 13.849 0 0 0 362.277 40.2 A 12.642 12.642 0 0 0 362.201 40.3 Q 361.701 41 361.151 41.8 A 48.969 48.969 0 0 0 360.718 42.442 Q 360.528 42.728 360.324 43.042 A 87.128 87.128 0 0 0 359.901 43.7 Q 359.401 44.4 359.001 45.15 Q 358.601 45.9 358.201 46.6 A 2.668 2.668 0 0 0 357.703 47.297 A 2.842 2.842 0 0 0 357.701 47.3 L 357.301 48.1 A 45.328 45.328 0 0 0 356.19 50.066 A 55.876 55.876 0 0 0 355.501 51.4 A 217.068 217.068 0 0 0 354.614 53.198 Q 354.152 54.143 353.646 55.197 A 360.763 360.763 0 0 0 353.501 55.5 L 351.751 59 L 350.301 61.9 A 10.543 10.543 0 0 0 350.026 62.336 A 12.452 12.452 0 0 0 349.901 62.55 Q 349.701 62.9 349.501 63.3 Q 348.801 64.5 348.051 65.75 A 149.267 149.267 0 0 1 347.347 66.911 Q 346.985 67.503 346.578 68.157 A 256.027 256.027 0 0 1 346.301 68.6 Q 345.201 70.4 344.251 71.5 A 9.857 9.857 0 0 1 343.549 72.237 Q 343.184 72.581 342.827 72.832 A 4.767 4.767 0 0 1 342.401 73.1 Q 342.001 73.4 341.551 73.5 A 4.269 4.269 0 0 1 340.787 73.597 A 4.864 4.864 0 0 1 340.601 73.6 Q 339.577 73.6 338.928 73.172 A 2.098 2.098 0 0 1 338.501 72.8 A 2.516 2.516 0 0 1 338.023 71.947 Q 337.801 71.3 337.801 70.4 L 337.801 70.15 L 337.801 69.9 A 8.285 8.285 0 0 1 337.833 69.194 A 10.601 10.601 0 0 1 337.901 68.6 Q 338.001 67.9 338.201 66.1 Q 338.298 65.619 338.394 64.582 A 43.567 43.567 0 0 0 338.401 64.5 Q 338.501 63.4 338.601 61.9 Q 338.701 59.6 338.751 58.05 A 196.935 196.935 0 0 0 338.773 57.355 Q 338.795 56.589 338.8 56.143 A 21.291 21.291 0 0 0 338.801 55.9 Q 338.801 54.7 338.751 53.25 A 38.205 38.205 0 0 0 338.679 51.895 Q 338.63 51.201 338.555 50.426 A 67.918 67.918 0 0 0 338.501 49.9 Q 338.401 47.9 338.301 46.05 A 127.234 127.234 0 0 1 338.258 45.191 Q 338.207 44.126 338.202 43.533 A 14.893 14.893 0 0 1 338.201 43.4 L 338.201 42.3 L 338.201 41.3 Q 338.301 40.5 338.401 39.65 Q 338.496 38.843 338.591 37.629 A 96.021 96.021 0 0 0 338.601 37.5 A 7.167 7.167 0 0 0 338.187 38.297 A 6.382 6.382 0 0 0 338.101 38.5 L 337.701 39.5 Q 337.501 39.9 337.351 40.3 Q 337.201 40.7 337.001 41.1 Q 336.608 42.183 336.214 43.556 A 51.2 51.2 0 0 0 336.201 43.6 L 335.201 47.1 Q 334.058 51.43 333.515 53.424 A 162.661 162.661 0 0 1 333.301 54.2 Q 332.807 55.979 332.411 57.172 A 34.421 34.421 0 0 1 332.401 57.2 A 54.897 54.897 0 0 1 332.292 57.681 Q 332.139 58.342 331.923 59.21 A 161.962 161.962 0 0 1 331.851 59.5 Q 331.501 60.9 330.601 64.2 A 46.92 46.92 0 0 1 326.283 74.6 A 35.515 35.515 0 0 1 317.751 84.7 A 32.861 32.861 0 0 1 297.552 91.981 A 41.281 41.281 0 0 1 296.301 92 Q 286.301 92 279.851 86.3 Q 273.401 80.6 273.401 71.8 A 21.305 21.305 0 0 1 279.949 56.05 A 26.442 26.442 0 0 1 280.851 55.2 A 25.956 25.956 0 0 1 297.023 48.569 A 33.841 33.841 0 0 1 299.201 48.5 Q 301.489 48.5 303.157 48.885 A 8.987 8.987 0 0 1 304.751 49.4 Q 305.969 49.935 306.464 50.752 A 2.364 2.364 0 0 1 306.801 52 Q 306.801 52.2 306.751 52.4 Q 306.701 52.6 306.601 52.8 A 1.246 1.246 0 0 1 306.464 53.081 Q 306.387 53.201 306.278 53.32 A 2.381 2.381 0 0 1 306.201 53.4 Q 305.93 53.671 305.414 54.024 A 11.749 11.749 0 0 1 305.301 54.1 A 6.136 6.136 0 0 0 304.458 54.963 A 7.163 7.163 0 0 0 304.201 55.3 Q 303.701 56 303.401 56.8 Q 303.319 56.965 303.271 57.197 A 2.598 2.598 0 0 0 303.251 57.3 Q 303.201 57.6 303.201 57.9 A 3.999 3.999 0 0 0 304.308 60.665 A 6.011 6.011 0 0 0 305.051 61.35 A 6.798 6.798 0 0 0 309.168 62.797 A 8.467 8.467 0 0 0 309.401 62.8 A 9.942 9.942 0 0 0 311.653 62.553 A 8.476 8.476 0 0 0 313.051 62.1 Q 314.701 61.4 316.301 59.8 A 20.328 20.328 0 0 0 317.808 58.007 Q 318.557 57.012 319.313 55.804 A 43.13 43.13 0 0 0 320.351 54.05 A 79.542 79.542 0 0 0 321.896 51.149 Q 322.616 49.732 323.392 48.095 A 180.407 180.407 0 0 0 325.001 44.6 Q 326.609 41.078 327.631 38.817 A 610.992 610.992 0 0 0 328.201 37.55 Q 329.301 35.1 330.201 33.5 A 16.11 16.11 0 0 1 330.476 32.974 A 13.775 13.775 0 0 1 330.601 32.75 A 11.705 11.705 0 0 1 330.876 32.293 A 9.892 9.892 0 0 1 331.001 32.1 A 19.933 19.933 0 0 1 331.685 31.081 A 24.067 24.067 0 0 1 332.151 30.45 A 202.89 202.89 0 0 0 332.674 29.764 Q 332.906 29.457 333.163 29.116 A 391.986 391.986 0 0 0 333.701 28.4 A 80.302 80.302 0 0 0 331.482 27.789 Q 330.381 27.503 329.394 27.286 A 42.828 42.828 0 0 0 328.251 27.05 Q 325.901 26.6 324.301 26.6 A 7.646 7.646 0 0 0 322.345 26.839 A 5.94 5.94 0 0 0 320.251 27.85 A 4.761 4.761 0 0 0 319.312 28.775 A 3.447 3.447 0 0 0 318.601 30.9 Q 318.601 31.8 319.151 32.55 Q 319.531 33.067 319.981 33.228 A 1.243 1.243 0 0 0 320.401 33.3 L 320.501 33.3 Z M 497.801 35.6 L 500.401 35.5 A 0.998 0.998 0 0 1 501.127 35.809 A 1.468 1.468 0 0 1 501.251 35.95 A 1.658 1.658 0 0 1 501.601 36.982 A 2.051 2.051 0 0 1 501.601 37 Q 501.601 37.2 501.551 37.4 Q 501.501 37.6 501.501 37.8 A 4.761 4.761 0 0 1 500.576 39.449 Q 499.582 40.645 497.677 41.752 A 19.645 19.645 0 0 1 497.051 42.1 Q 493.301 44.1 489.001 44.6 Q 488.501 44.6 488.001 44.65 Q 487.501 44.7 487.001 44.7 A 22.142 22.142 0 0 1 481.716 44.103 A 15.667 15.667 0 0 1 474.751 40.45 A 14.063 14.063 0 0 1 470.193 31.115 A 19.452 19.452 0 0 1 470.101 29.2 A 16.574 16.574 0 0 1 475.49 16.748 A 21.971 21.971 0 0 1 476.551 15.8 A 23.03 23.03 0 0 1 489.24 10.562 A 30.268 30.268 0 0 1 492.401 10.4 L 493.051 10.4 L 493.701 10.4 A 39.671 39.671 0 0 1 502.227 11.742 A 43.973 43.973 0 0 1 502.801 11.9 Q 507.255 13.159 512.459 15.636 A 86.253 86.253 0 0 1 512.801 15.8 A 4.556 4.556 0 0 1 513.364 16.032 A 5.003 5.003 0 0 1 513.401 16.05 A 2.165 2.165 0 0 1 513.684 16.218 A 1.671 1.671 0 0 1 513.901 16.4 A 267.234 267.234 0 0 0 515.212 17.051 Q 516.111 17.494 517.151 18 Q 518.968 18.884 522.664 20.924 A 346.44 346.44 0 0 1 522.801 21 A 43.764 43.764 0 0 1 530.533 17.395 A 48.146 48.146 0 0 1 530.801 17.3 Q 535.101 15.8 539.601 15.1 Q 541.301 14.9 543.001 14.75 Q 544.701 14.6 546.401 14.6 Q 553.262 14.6 558.161 16.618 A 19.721 19.721 0 0 1 561.151 18.15 A 14.686 14.686 0 0 1 564.123 20.561 A 9.59 9.59 0 0 1 566.801 27.3 A 10.65 10.65 0 0 1 564.476 33.903 Q 563.359 35.365 561.704 36.708 A 21.066 21.066 0 0 1 561.651 36.75 Q 556.501 40.9 549.701 40.9 A 28.084 28.084 0 0 1 546.459 40.705 A 34.144 34.144 0 0 1 544.401 40.4 A 46.694 46.694 0 0 1 539.425 39.219 A 51.645 51.645 0 0 1 538.701 39 L 535.901 38.1 L 533.201 37.2 L 530.401 36.3 A 3.495 3.495 0 0 0 530.117 36.175 Q 529.816 36.057 529.393 35.939 A 12.534 12.534 0 0 0 529.251 35.9 Q 528.501 35.7 527.601 35.4 Q 524.801 38.3 523.101 41.15 A 23.005 23.005 0 0 0 521.47 44.429 A 18.672 18.672 0 0 0 520.701 46.8 Q 520.501 47.7 520.401 48.65 A 17.771 17.771 0 0 0 520.302 50.388 A 16.278 16.278 0 0 0 520.301 50.5 A 9.331 9.331 0 0 0 520.894 53.873 A 8.51 8.51 0 0 0 522.601 56.6 Q 524.901 59.1 528.101 59.1 A 11.287 11.287 0 0 0 534.926 56.781 A 15.726 15.726 0 0 0 536.651 55.3 Q 540.422 51.579 543.761 43.637 A 74.014 74.014 0 0 0 543.901 43.3 L 559.501 43.3 L 554.301 66.7 Q 550.901 82.1 538.051 92.3 Q 525.201 102.5 509.301 102.5 Q 499.115 102.5 492.17 98.513 A 24.783 24.783 0 0 1 490.051 97.15 A 19.379 19.379 0 0 1 485.514 92.698 A 15.772 15.772 0 0 1 482.601 83.3 A 14.317 14.317 0 0 1 486.596 73.328 A 19.059 19.059 0 0 1 487.301 72.6 A 16.181 16.181 0 0 1 492.574 69.079 A 15.169 15.169 0 0 1 498.301 68 Q 500.387 68 501.906 68.508 A 7.029 7.029 0 0 1 502.751 68.85 Q 503.732 69.327 504.163 69.976 A 1.99 1.99 0 0 1 504.501 71.1 L 504.501 71.35 L 504.501 71.6 Q 504.401 71.9 504.101 72.4 Q 503.856 72.809 503.144 73.884 A 193.178 193.178 0 0 1 502.801 74.4 Q 502.501 74.8 502.351 75.3 A 3.545 3.545 0 0 0 502.22 75.991 A 4.405 4.405 0 0 0 502.201 76.4 Q 502.201 79.613 505.506 81.978 A 13.25 13.25 0 0 0 505.901 82.25 A 14.58 14.58 0 0 0 511.698 84.461 A 19.416 19.416 0 0 0 514.801 84.7 A 22.051 22.051 0 0 0 527.766 80.477 A 27.018 27.018 0 0 0 528.151 80.2 Q 533.725 76.122 537.943 68.512 A 54.578 54.578 0 0 0 538.801 66.9 Q 536.226 69.073 534.007 70.598 A 39.908 39.908 0 0 1 532.951 71.3 A 29.084 29.084 0 0 1 530.178 72.881 A 22.522 22.522 0 0 1 527.801 73.9 Q 526.001 74.5 524.201 74.8 A 22.319 22.319 0 0 1 521.389 75.081 A 25.695 25.695 0 0 1 520.401 75.1 A 22.441 22.441 0 0 1 512.611 73.793 A 19.841 19.841 0 0 1 505.301 69.05 A 20.467 20.467 0 0 1 499.316 54.782 A 26.943 26.943 0 0 1 499.301 53.9 Q 499.301 51.4 499.951 48.8 A 31.267 31.267 0 0 1 501.236 44.844 A 36.328 36.328 0 0 1 501.801 43.5 A 36.905 36.905 0 0 1 504.787 38.233 A 43.571 43.571 0 0 1 506.251 36.2 A 48.211 48.211 0 0 1 512.155 29.802 A 53.342 53.342 0 0 1 512.601 29.4 Q 509.801 28.7 508.251 28.4 Q 506.701 28.1 505.401 28 L 504.501 28 L 503.601 28 A 22.906 22.906 0 0 0 501.033 28.135 Q 499.777 28.277 498.731 28.569 A 9.578 9.578 0 0 0 496.951 29.25 Q 495.429 30.027 494.853 31.132 A 3.127 3.127 0 0 0 494.501 32.6 Q 494.501 33.9 495.451 34.75 A 3.315 3.315 0 0 0 497.458 35.587 A 4.35 4.35 0 0 0 497.801 35.6 Z M 63.101 14 L 65.101 14 Q 70.401 6.9 76.101 3.45 Q 81.801 0 88.201 0 A 12.895 12.895 0 0 1 90.543 0.2 Q 91.87 0.446 92.936 0.992 A 7.084 7.084 0 0 1 93.851 1.55 A 5.325 5.325 0 0 1 95.283 3.045 Q 95.968 4.143 96 5.56 A 6.188 6.188 0 0 1 96.001 5.7 A 5.777 5.777 0 0 1 94.846 9.14 A 8.841 8.841 0 0 1 93.501 10.6 Q 91.001 12.8 87.801 12.8 Q 87.005 12.8 86.704 12.651 A 0.62 0.62 0 0 1 86.701 12.65 A 0.766 0.766 0 0 1 86.514 12.513 Q 86.354 12.358 86.194 12.076 A 3.878 3.878 0 0 1 86.101 11.9 Q 86.001 11.6 85.901 11.25 Q 85.825 10.982 85.748 10.626 A 15.938 15.938 0 0 1 85.701 10.4 A 0.319 0.319 0 0 0 85.697 10.344 Q 85.691 10.313 85.679 10.289 A 0.148 0.148 0 0 0 85.651 10.25 L 85.601 10.2 Q 85.401 9.9 84.901 9.65 A 4.139 4.139 0 0 0 84.183 9.368 A 3.632 3.632 0 0 0 83.901 9.3 L 83.651 9.3 L 83.401 9.3 L 82.851 9.3 A 1.077 1.077 0 0 0 82.586 9.332 A 0.913 0.913 0 0 0 82.401 9.4 A 7.942 7.942 0 0 0 79.561 10.242 A 10.258 10.258 0 0 0 78.301 11 A 13.658 13.658 0 0 0 75.849 13.225 A 17.024 17.024 0 0 0 74.701 14.7 Q 84.101 16 89.701 22.05 Q 95.301 28.1 95.301 36.8 Q 95.301 46.5 89.351 53.7 Q 83.401 60.9 75.201 60.9 A 13.565 13.565 0 0 1 70.738 60.19 A 11.793 11.793 0 0 1 66.751 57.85 A 10.247 10.247 0 0 1 64.191 54.497 A 9.821 9.821 0 0 1 63.301 50.3 L 63.301 49.9 L 63.301 49.5 A 14.713 14.713 0 0 1 64.731 43.94 A 14.237 14.237 0 0 1 64.901 43.6 Q 66.058 41.369 67.351 40.709 A 2.586 2.586 0 0 1 67.901 40.5 L 68.051 40.5 L 68.201 40.5 L 68.351 40.5 L 68.501 40.5 A 1.351 1.351 0 0 1 68.893 40.555 A 1.152 1.152 0 0 1 69.201 40.7 A 1.311 1.311 0 0 1 69.507 40.989 Q 69.61 41.121 69.696 41.289 A 2.221 2.221 0 0 1 69.701 41.3 Q 69.801 41.5 69.901 41.75 Q 70.001 42 70.101 42.3 Q 70.401 43.1 71.101 43.6 A 2.688 2.688 0 0 0 71.938 44.01 A 2.439 2.439 0 0 0 72.601 44.1 A 4.04 4.04 0 0 0 74.88 43.369 Q 75.907 42.682 76.851 41.35 Q 78.801 38.6 79.001 35.3 L 79.001 34.95 L 79.001 34.7 Q 79.001 30.6 76.401 27.65 A 11.663 11.663 0 0 0 71.396 24.346 A 15.37 15.37 0 0 0 69.401 23.8 Q 67.901 27.4 67.051 29.45 Q 66.201 31.5 65.701 33.3 L 65.501 33.9 Q 65.425 34.13 65.348 34.301 A 2.566 2.566 0 0 1 65.301 34.4 A 5.439 5.439 0 0 0 65.215 34.683 Q 65.177 34.823 65.151 34.95 A 1.937 1.937 0 0 1 65.074 35.229 A 1.593 1.593 0 0 1 65.001 35.4 A 80.92 80.92 0 0 0 64.428 37.302 Q 64.097 38.449 63.751 39.75 Q 63.101 42.2 62.301 45.2 L 60.301 53.2 L 59.401 57.3 Q 56.204 70.557 49.754 78.857 A 36.814 36.814 0 0 1 45.851 83.15 A 32.503 32.503 0 0 1 24.248 91.965 A 42.376 42.376 0 0 1 22.501 92 A 26.664 26.664 0 0 1 14.381 90.81 A 22.318 22.318 0 0 1 6.501 86.4 A 19.231 19.231 0 0 1 2.001 80.897 A 17.346 17.346 0 0 1 0.001 72.6 A 21.061 21.061 0 0 1 5.625 58.242 A 29.437 29.437 0 0 1 7.901 55.95 Q 15.801 48.8 26.401 48.8 A 12.079 12.079 0 0 1 28.008 48.901 Q 28.854 49.014 29.556 49.257 A 5.79 5.79 0 0 1 30.451 49.65 Q 32.001 50.5 32.001 51.9 L 32.001 51.95 L 32.001 52 L 32.001 52.2 L 32.001 52.4 A 1.622 1.622 0 0 1 31.925 52.585 Q 31.832 52.781 31.662 53.037 A 7.258 7.258 0 0 1 31.551 53.2 Q 31.264 53.611 30.539 54.559 A 164.613 164.613 0 0 1 30.201 55 Q 30.115 55.172 29.992 55.381 A 9.428 9.428 0 0 1 29.951 55.45 A 1.34 1.34 0 0 0 29.867 55.613 Q 29.831 55.698 29.814 55.778 A 0.606 0.606 0 0 0 29.801 55.9 A 5.439 5.439 0 0 0 29.715 56.183 Q 29.677 56.323 29.651 56.45 A 2.842 2.842 0 0 0 29.617 56.659 Q 29.601 56.788 29.601 56.9 A 4.113 4.113 0 0 0 30.762 59.774 A 5.786 5.786 0 0 0 31.201 60.2 Q 32.801 61.6 35.001 61.6 Q 35.901 61.6 36.751 61.4 Q 37.601 61.2 38.601 60.9 A 15.529 15.529 0 0 0 41.163 59.61 A 18.396 18.396 0 0 0 42.151 58.95 Q 43.901 57.7 45.201 56 Q 45.801 55.2 46.401 54.3 Q 47.001 53.4 47.501 52.4 A 20.842 20.842 0 0 0 48.279 50.973 Q 48.65 50.229 49.011 49.379 A 35.955 35.955 0 0 0 49.251 48.8 Q 49.836 47.356 50.538 45.535 A 338.174 338.174 0 0 0 51.201 43.8 Q 52.096 41.474 52.63 39.949 A 62.98 62.98 0 0 0 52.751 39.6 A 27.683 27.683 0 0 1 53.278 38.188 Q 53.583 37.438 53.901 36.8 A 0.676 0.676 0 0 1 53.929 36.605 A 0.576 0.576 0 0 1 54.001 36.45 A 0.596 0.596 0 0 0 54.098 36.17 A 0.75 0.75 0 0 0 54.101 36.1 Q 54.703 34.639 55.563 32.846 A 93.096 93.096 0 0 1 55.851 32.25 Q 56.901 30.1 58.901 25.8 A 2.523 2.523 0 0 0 58.956 25.683 Q 59.05 25.467 59.201 25.05 Q 59.357 24.623 59.633 24.105 A 11.896 11.896 0 0 1 59.801 23.8 Q 59.401 23.9 59.101 23.95 Q 58.801 24 58.401 24.1 A 28.115 28.115 0 0 0 57.136 24.339 Q 56.536 24.468 56.023 24.611 A 13.093 13.093 0 0 0 55.401 24.8 Q 54.201 25.2 53.101 25.8 A 3.964 3.964 0 0 1 52.866 25.946 Q 52.746 26.014 52.636 26.064 A 2.11 2.11 0 0 1 52.551 26.1 Q 52.301 26.2 52.101 26.4 A 11.023 11.023 0 0 0 50.833 27.392 A 12.972 12.972 0 0 0 50.351 27.85 A 8.876 8.876 0 0 0 49.526 28.795 A 7.029 7.029 0 0 0 49.001 29.6 A 10.895 10.895 0 0 0 48.599 30.372 A 8.743 8.743 0 0 0 48.351 30.95 A 4.479 4.479 0 0 0 48.199 31.417 Q 48.138 31.649 48.115 31.858 A 2.23 2.23 0 0 0 48.101 32.1 Q 48.101 32.556 48.186 32.884 A 1.597 1.597 0 0 0 48.301 33.2 A 1.819 1.819 0 0 0 48.513 33.525 Q 48.633 33.674 48.793 33.822 A 3.869 3.869 0 0 0 49.001 34 A 5.574 5.574 0 0 0 49.599 34.389 A 6.609 6.609 0 0 0 49.901 34.55 A 9.028 9.028 0 0 0 50.28 34.728 Q 50.478 34.816 50.709 34.909 A 20.886 20.886 0 0 0 51.201 35.1 A 0.879 0.879 0 0 1 51.765 35.534 A 1.215 1.215 0 0 1 51.801 35.6 A 1.904 1.904 0 0 1 51.99 36.271 A 2.337 2.337 0 0 1 52.001 36.5 A 5.361 5.361 0 0 1 51.837 37.362 Q 51.658 38.028 51.301 38.8 A 9.109 9.109 0 0 1 50.698 39.889 Q 50.173 40.71 49.401 41.6 A 22.418 22.418 0 0 1 45.667 45.034 A 19.254 19.254 0 0 1 43.201 46.55 Q 39.801 48.3 36.101 48.3 Q 31.101 48.3 27.601 45.2 A 10.348 10.348 0 0 1 24.949 41.665 A 10.107 10.107 0 0 1 24.101 37.5 A 15.756 15.756 0 0 1 28.049 27.16 Q 29.968 24.869 32.818 22.793 A 38.89 38.89 0 0 1 35.601 20.95 Q 47.101 14 63.101 14 Z M 121.001 79.5 L 120.301 79.5 L 126.001 53.5 A 1.89 1.89 0 0 0 126.101 52.91 A 1.801 1.801 0 0 0 126.101 52.9 A 1.494 1.494 0 0 1 126.115 52.689 Q 126.139 52.525 126.201 52.4 Q 126.301 51.8 126.351 51.2 Q 126.401 50.6 126.401 50.2 A 8.054 8.054 0 0 0 126.366 49.416 Q 126.285 48.594 126.021 48.077 A 2.103 2.103 0 0 0 125.951 47.95 A 2.394 2.394 0 0 0 125.5 47.414 Q 125.034 46.991 124.252 46.624 A 8.202 8.202 0 0 0 124.201 46.6 A 43.588 43.588 0 0 1 126.515 44.817 A 37.235 37.235 0 0 1 127.551 44.1 Q 129.201 43 131.001 42.3 Q 132.701 41.5 134.401 41.15 A 16.792 16.792 0 0 1 136.996 40.817 A 14.945 14.945 0 0 1 137.701 40.8 Q 140.301 40.8 141.801 42.3 A 5.103 5.103 0 0 1 143.04 44.382 Q 143.357 45.364 143.401 46.6 Q 146.301 44.3 148.501 43 A 22.38 22.38 0 0 1 150.618 41.89 A 16.494 16.494 0 0 1 152.701 41.1 Q 153.701 40.8 154.751 40.7 Q 155.801 40.6 156.901 40.6 Q 159.923 40.6 162.013 41.755 A 7.637 7.637 0 0 1 162.651 42.15 Q 164.901 43.7 165.701 46.6 A 38.009 38.009 0 0 1 167.996 44.857 A 29.015 29.015 0 0 1 169.951 43.6 A 24.651 24.651 0 0 1 172.62 42.241 A 20.801 20.801 0 0 1 174.001 41.7 Q 175.401 41.2 176.851 40.95 Q 178.301 40.7 179.801 40.7 A 11.895 11.895 0 0 1 182.759 41.049 A 8.731 8.731 0 0 1 186.351 42.9 Q 188.901 45.1 188.901 48.6 A 8.979 8.979 0 0 1 188.875 49.293 A 7.738 7.738 0 0 1 188.851 49.55 A 8.272 8.272 0 0 0 188.808 50.093 A 6.866 6.866 0 0 0 188.801 50.4 A 0.952 0.952 0 0 0 188.707 50.736 A 1.169 1.169 0 0 0 188.701 50.85 A 1.077 1.077 0 0 1 188.67 51.116 A 0.913 0.913 0 0 1 188.601 51.3 L 185.901 64.1 Q 185.901 64.2 185.851 64.3 A 0.482 0.482 0 0 0 185.811 64.413 A 0.408 0.408 0 0 0 185.801 64.5 L 185.601 65.7 A 12.284 12.284 0 0 0 185.558 65.981 Q 185.501 66.375 185.501 66.6 A 3.289 3.289 0 0 0 185.727 67.835 A 3.053 3.053 0 0 0 186.351 68.8 Q 187.201 69.7 188.401 69.7 L 188.851 69.7 Q 189.101 69.7 189.401 69.6 A 0.955 0.955 0 0 0 189.586 69.581 Q 189.711 69.556 189.851 69.5 Q 190.101 69.4 190.301 69.3 A 53.648 53.648 0 0 1 190.873 69.089 Q 191.326 68.925 191.701 68.8 Q 192.092 68.67 192.398 68.625 A 2.075 2.075 0 0 1 192.701 68.6 A 1.325 1.325 0 0 1 193.607 68.956 A 1.852 1.852 0 0 1 193.751 69.1 Q 194.201 69.6 194.201 70.3 Q 194.101 71.4 193.201 72.75 A 10.065 10.065 0 0 1 192.27 73.93 Q 191.763 74.489 191.123 75.055 A 19.227 19.227 0 0 1 190.601 75.5 Q 190.301 75.8 189.951 76.05 Q 189.601 76.3 189.201 76.6 Q 187.301 78 185.201 78.85 Q 183.101 79.7 180.901 80.1 L 179.301 80.3 Q 178.501 80.4 177.701 80.4 A 12.801 12.801 0 0 1 174.657 80.057 A 9.138 9.138 0 0 1 170.851 78.15 A 7.235 7.235 0 0 1 168.218 72.868 A 9.361 9.361 0 0 1 168.201 72.3 A 4.142 4.142 0 0 1 168.217 71.947 A 5.3 5.3 0 0 1 168.251 71.65 A 4.954 4.954 0 0 0 168.294 71.193 A 5.966 5.966 0 0 0 168.301 70.9 Q 168.378 70.747 168.425 70.623 A 1.815 1.815 0 0 0 168.451 70.55 Q 168.498 70.41 168.501 70.225 A 1.564 1.564 0 0 0 168.501 70.2 L 170.901 59.8 A 3.732 3.732 0 0 0 171.13 58.972 A 3.413 3.413 0 0 0 171.151 58.8 A 10.922 10.922 0 0 0 171.187 58.353 Q 171.199 58.143 171.201 57.954 A 6.563 6.563 0 0 0 171.201 57.9 A 5.795 5.795 0 0 0 171.143 57.046 Q 170.999 56.083 170.501 55.55 Q 169.801 54.8 168.401 54.8 A 3.893 3.893 0 0 0 166.628 55.199 Q 165.894 55.568 165.319 56.278 A 4.936 4.936 0 0 0 165.301 56.3 Q 164.25 57.614 163.506 60.462 A 27.972 27.972 0 0 0 163.301 61.3 L 160.901 72.6 L 159.601 79.5 L 144.001 79.5 L 147.701 59.8 Q 147.801 59.5 147.851 59.2 Q 147.901 58.9 147.901 58.6 A 1.965 1.965 0 0 0 147.995 58.122 A 2.326 2.326 0 0 0 148.001 57.95 L 148.001 57.1 A 2.822 2.822 0 0 0 147.877 56.243 A 2.299 2.299 0 0 0 147.301 55.3 A 2.363 2.363 0 0 0 145.807 54.614 A 3.207 3.207 0 0 0 145.501 54.6 A 3.894 3.894 0 0 0 142.572 55.892 A 5.417 5.417 0 0 0 142.301 56.2 Q 141.001 57.8 140.201 61.3 L 136.301 79.5 L 129.701 79.5 L 121.001 79.5 Z M 430.401 47.9 L 424.601 75 A 37.132 37.132 0 0 1 421.348 84.377 A 29.687 29.687 0 0 1 414.551 93.15 Q 406.901 99.9 396.301 99.9 A 21.904 21.904 0 0 1 392.251 99.548 Q 389.933 99.111 388.089 98.134 A 11.872 11.872 0 0 1 386.401 97.05 A 9.44 9.44 0 0 1 383.685 93.855 Q 382.747 92.014 382.703 89.726 A 11.772 11.772 0 0 1 382.701 89.5 A 12.86 12.86 0 0 1 382.858 87.439 Q 383.087 86.028 383.651 84.9 A 7.36 7.36 0 0 1 384.754 83.304 Q 385.33 82.658 386.103 82.037 A 15.564 15.564 0 0 1 387.101 81.3 Q 387.601 80.9 388.151 80.6 A 14.054 14.054 0 0 0 388.849 80.192 A 17.34 17.34 0 0 0 389.301 79.9 A 10.046 10.046 0 0 0 390.02 81.985 A 6.94 6.94 0 0 0 391.951 84.45 A 6.978 6.978 0 0 0 394.963 85.817 A 9.787 9.787 0 0 0 396.901 86 A 9.916 9.916 0 0 0 403.66 83.364 A 12.941 12.941 0 0 0 404.001 83.05 Q 407.016 80.181 408.518 75.278 A 26.063 26.063 0 0 0 408.601 75 Q 406.151 76.608 404.141 77.659 A 31.063 31.063 0 0 1 402.951 78.25 A 17.955 17.955 0 0 1 400.316 79.254 A 14.23 14.23 0 0 1 398.201 79.7 Q 397.501 79.8 396.901 79.85 Q 396.301 79.9 395.701 79.9 A 12.463 12.463 0 0 1 392.902 79.603 A 8.441 8.441 0 0 1 389.001 77.6 A 7.576 7.576 0 0 1 386.658 73.194 A 10.992 10.992 0 0 1 386.501 71.3 A 12.928 12.928 0 0 1 386.508 70.909 Q 386.513 70.72 386.524 70.505 A 28.756 28.756 0 0 1 386.551 70.05 Q 386.601 69.3 386.801 68.5 Q 386.801 68.2 386.851 67.9 Q 386.901 67.6 387.001 67.3 L 390.201 52.7 A 0.963 0.963 0 0 0 390.282 52.475 A 0.817 0.817 0 0 0 390.301 52.3 A 0.851 0.851 0 0 1 390.36 51.994 A 1.045 1.045 0 0 1 390.401 51.9 A 7.195 7.195 0 0 1 390.421 51.381 A 8.664 8.664 0 0 1 390.451 51.05 Q 390.487 50.726 390.497 50.48 A 4.41 4.41 0 0 0 390.501 50.3 Q 390.501 49.7 390.401 49.25 A 5.62 5.62 0 0 0 390.247 48.698 A 7.102 7.102 0 0 0 390.101 48.3 Q 389.946 47.989 389.639 47.648 A 5.117 5.117 0 0 0 389.451 47.45 Q 389.149 47.148 388.689 46.778 A 18.405 18.405 0 0 0 388.201 46.4 A 53.677 53.677 0 0 1 390.578 44.694 Q 392.476 43.413 394.101 42.6 A 23.349 23.349 0 0 1 396.807 41.445 A 18.056 18.056 0 0 1 399.101 40.8 Q 399.801 40.7 400.501 40.65 Q 401.201 40.6 401.901 40.6 A 6.774 6.774 0 0 1 403.848 40.868 A 5.451 5.451 0 0 1 405.901 42 A 4.523 4.523 0 0 1 407.493 45.295 A 5.828 5.828 0 0 1 407.501 45.6 Q 407.501 46 407.451 46.55 Q 407.401 47.1 407.201 47.9 L 404.401 60.9 Q 404.229 61.502 404.131 61.993 A 9.291 9.291 0 0 0 404.101 62.15 A 7.362 7.362 0 0 0 404.04 62.542 Q 404.016 62.735 404.007 62.904 A 3.644 3.644 0 0 0 404.001 63.1 A 2.526 2.526 0 0 0 403.991 63.329 Q 403.991 64.136 404.527 64.801 A 3.128 3.128 0 0 0 404.751 65.05 A 3.041 3.041 0 0 0 405.543 65.631 A 2.561 2.561 0 0 0 406.701 65.9 A 4.671 4.671 0 0 0 408.422 65.593 A 4.268 4.268 0 0 0 410.001 64.5 A 5.902 5.902 0 0 0 410.85 63.29 Q 411.55 61.998 412.001 60 L 413.701 52.7 A 0.952 0.952 0 0 0 413.796 52.365 A 1.169 1.169 0 0 0 413.801 52.25 A 1.077 1.077 0 0 1 413.833 51.985 A 0.913 0.913 0 0 1 413.901 51.8 Q 414.001 51.3 414.051 50.8 A 13.885 13.885 0 0 0 414.078 50.507 Q 414.101 50.206 414.101 50 A 6.541 6.541 0 0 0 414.074 49.387 Q 414.046 49.086 413.987 48.833 A 2.713 2.713 0 0 0 413.851 48.4 A 3.077 3.077 0 0 0 413.54 47.838 Q 413.32 47.519 413.001 47.2 A 5.087 5.087 0 0 0 412.732 46.95 A 6.126 6.126 0 0 0 412.551 46.8 A 7.351 7.351 0 0 0 412.219 46.55 A 8.781 8.781 0 0 0 412.001 46.4 A 34.811 34.811 0 0 1 414.938 44.218 Q 416.801 42.988 418.601 42.2 A 17.856 17.856 0 0 1 421.535 41.195 A 13.38 13.38 0 0 1 424.701 40.8 Q 426.941 40.8 428.439 41.728 A 5.188 5.188 0 0 1 428.901 42.05 Q 430.501 43.3 430.601 45.5 L 430.601 46.7 A 3.774 3.774 0 0 1 430.403 47.896 A 4.593 4.593 0 0 1 430.401 47.9 Z M 754.201 47.3 L 748.201 73.2 Q 746.976 78.1 745.429 81.74 A 35.093 35.093 0 0 1 744.451 83.85 Q 742.301 88.1 738.801 91.7 Q 735.701 95 731.801 97.1 Q 727.901 99.2 723.801 100 A 19.451 19.451 0 0 1 722.11 100.259 A 21.948 21.948 0 0 1 721.701 100.3 A 24.225 24.225 0 0 1 720.172 100.392 A 20.862 20.862 0 0 1 719.601 100.4 Q 714.454 100.4 710.975 98.431 A 12.208 12.208 0 0 1 709.501 97.45 Q 705.764 94.549 705.702 89.859 A 12.013 12.013 0 0 1 705.701 89.7 A 9.152 9.152 0 0 1 706.153 86.779 A 8.012 8.012 0 0 1 707.351 84.5 A 10.827 10.827 0 0 1 708.877 82.878 Q 709.716 82.142 710.8 81.429 A 25.874 25.874 0 0 1 712.701 80.3 A 7.745 7.745 0 0 0 713.144 82.458 A 6.028 6.028 0 0 0 714.801 84.9 A 6.63 6.63 0 0 0 718.815 86.574 A 8.701 8.701 0 0 0 719.501 86.6 Q 720.301 86.6 721.101 86.45 Q 721.901 86.3 722.701 86 A 13.973 13.973 0 0 0 725.466 84.603 A 16.575 16.575 0 0 0 726.401 83.95 A 14.081 14.081 0 0 0 728.764 81.728 A 12.688 12.688 0 0 0 729.401 80.9 A 2.493 2.493 0 0 1 729.562 80.625 A 2.956 2.956 0 0 1 729.651 80.5 A 2.776 2.776 0 0 0 729.83 80.231 A 2.352 2.352 0 0 0 729.901 80.1 A 12.963 12.963 0 0 0 730.565 79.067 A 15.338 15.338 0 0 0 730.851 78.55 Q 731.301 77.7 731.601 76.6 A 11.705 11.705 0 0 0 731.998 75.573 A 15.524 15.524 0 0 0 732.301 74.55 Q 732.601 73.4 733.001 72 Q 730.918 74.285 729.197 75.892 A 35.293 35.293 0 0 1 727.601 77.3 A 17.416 17.416 0 0 1 725.749 78.646 Q 724.701 79.301 723.674 79.698 A 9.968 9.968 0 0 1 723.101 79.9 Q 722.201 80.3 721.201 80.45 Q 720.201 80.6 719.201 80.6 A 8.538 8.538 0 0 1 712.679 77.756 A 11.295 11.295 0 0 1 712.001 76.95 A 12.959 12.959 0 0 1 709.737 72.132 Q 709.272 70.267 709.211 68.078 A 24.054 24.054 0 0 1 709.201 67.4 A 27.117 27.117 0 0 1 714.95 50.712 A 34.753 34.753 0 0 1 716.201 49.15 A 28.755 28.755 0 0 1 720.84 44.712 Q 724.414 42.032 728.332 41.236 A 16.886 16.886 0 0 1 731.701 40.9 A 13.793 13.793 0 0 1 733.333 40.993 A 11.307 11.307 0 0 1 734.301 41.15 Q 735.501 41.4 736.701 41.9 Q 737.701 42.4 738.801 43.2 Q 739.901 44 741.101 45.1 Q 743.899 43.102 745.849 42.152 A 23.38 23.38 0 0 1 745.851 42.15 A 11.499 11.499 0 0 1 747.646 41.446 A 8.636 8.636 0 0 1 749.601 41.1 L 749.801 41.1 L 750.001 41.1 A 5.411 5.411 0 0 1 751.389 41.269 A 3.939 3.939 0 0 1 753.201 42.3 A 4.048 4.048 0 0 1 754.37 44.81 A 5.525 5.525 0 0 1 754.401 45.4 A 5.693 5.693 0 0 1 754.382 45.881 A 4.731 4.731 0 0 1 754.351 46.15 A 4.954 4.954 0 0 0 754.308 46.607 A 5.966 5.966 0 0 0 754.301 46.9 Q 754.301 47 754.251 47.1 A 0.482 0.482 0 0 0 754.211 47.213 A 0.408 0.408 0 0 0 754.201 47.3 Z M 205.901 103.4 L 189.501 103.4 L 203.001 46.1 Q 203.201 45.1 203.351 44.2 Q 203.464 43.522 203.492 43.127 A 3.271 3.271 0 0 0 203.501 42.9 Q 203.501 42.2 203.301 41.7 A 3.566 3.566 0 0 0 203.003 41.122 A 4.65 4.65 0 0 0 202.701 40.7 Q 202.401 40.4 202.101 40.15 A 14.218 14.218 0 0 0 201.82 39.922 Q 201.675 39.807 201.512 39.684 A 23.856 23.856 0 0 0 201.401 39.6 Q 204.201 37.5 206.451 36.2 Q 208.701 34.9 210.901 34.4 Q 211.901 34.1 212.851 34 Q 213.801 33.9 214.801 33.9 A 10.13 10.13 0 0 1 216.547 34.041 Q 218.139 34.32 219.201 35.15 Q 220.801 36.4 220.601 38.5 A 11.163 11.163 0 0 1 220.574 39.262 A 12.957 12.957 0 0 1 220.551 39.55 A 5.437 5.437 0 0 1 220.479 40.06 Q 220.43 40.32 220.355 40.606 A 9.747 9.747 0 0 1 220.301 40.8 L 219.601 44.4 A 33.372 33.372 0 0 1 221.041 43.436 Q 221.768 42.978 222.443 42.613 A 19.502 19.502 0 0 1 222.751 42.45 Q 224.201 41.7 225.601 41.3 Q 226.601 41 227.551 40.9 A 18.107 18.107 0 0 1 228.781 40.815 A 22.362 22.362 0 0 1 229.601 40.8 A 12.182 12.182 0 0 1 233.969 41.557 A 10.891 10.891 0 0 1 238.251 44.55 A 12.912 12.912 0 0 1 241.29 50.853 A 18.265 18.265 0 0 1 241.601 54.3 A 32.882 32.882 0 0 1 239.978 64.787 A 28.913 28.913 0 0 1 235.851 72.75 Q 230.101 80.6 222.401 80.6 A 15.744 15.744 0 0 1 219.919 80.413 A 11.72 11.72 0 0 1 217.451 79.75 A 10.257 10.257 0 0 1 214.986 78.335 A 13.591 13.591 0 0 1 213.401 76.9 A 2.529 2.529 0 0 1 212.931 76.492 A 2.9 2.9 0 0 1 212.851 76.4 Q 212.601 76.1 212.301 75.8 L 209.601 87.6 L 205.901 103.4 Z M 608.501 46.9 L 604.801 63.5 Q 604.516 64.735 604.367 65.564 A 22.33 22.33 0 0 0 604.351 65.65 A 13.911 13.911 0 0 0 604.272 66.147 Q 604.201 66.656 604.201 67 Q 604.103 67.98 604.965 68.816 A 3.793 3.793 0 0 0 605.001 68.85 Q 605.901 69.7 607.101 69.7 A 5.693 5.693 0 0 0 607.582 69.681 A 4.731 4.731 0 0 0 607.851 69.65 A 3.926 3.926 0 0 0 608.299 69.56 A 3.326 3.326 0 0 0 608.501 69.5 A 1.359 1.359 0 0 0 608.667 69.491 Q 608.767 69.478 608.851 69.45 A 1.966 1.966 0 0 0 608.971 69.406 Q 609.076 69.363 609.201 69.3 Q 610.001 69 610.601 68.85 Q 611.017 68.746 611.336 68.714 A 2.674 2.674 0 0 1 611.601 68.7 A 1.312 1.312 0 0 1 612.36 68.947 A 2.005 2.005 0 0 1 612.701 69.25 A 1.945 1.945 0 0 1 613.08 69.848 A 1.768 1.768 0 0 1 613.201 70.5 A 3.009 3.009 0 0 1 613.091 71.283 Q 612.967 71.746 612.701 72.25 A 5.76 5.76 0 0 1 612.053 73.217 Q 611.686 73.664 611.201 74.1 L 610.651 74.65 Q 610.401 74.9 610.101 75.1 Q 608.201 76.8 605.951 78 A 21.248 21.248 0 0 1 602.262 79.554 A 19.301 19.301 0 0 1 601.401 79.8 Q 600.201 80.1 598.951 80.3 A 15.503 15.503 0 0 1 596.52 80.5 A 14.183 14.183 0 0 1 596.501 80.5 A 9.407 9.407 0 0 1 593.695 80.1 A 7.589 7.589 0 0 1 590.601 78.25 A 7.558 7.558 0 0 1 588.321 73.145 A 10.143 10.143 0 0 1 588.301 72.5 L 588.301 71.45 Q 588.301 70.978 588.375 70.394 A 12.243 12.243 0 0 1 588.401 70.2 Q 586.601 72.4 585.701 73.55 A 26.659 26.659 0 0 1 584.933 74.489 Q 584.542 74.945 584.171 75.328 A 15.137 15.137 0 0 1 584.001 75.5 A 1.348 1.348 0 0 1 583.897 75.594 Q 583.84 75.64 583.772 75.686 A 2.288 2.288 0 0 1 583.751 75.7 A 2.009 2.009 0 0 0 583.63 75.788 Q 583.569 75.835 583.519 75.883 A 1.169 1.169 0 0 0 583.501 75.9 A 4.019 4.019 0 0 1 583.326 76.144 Q 583.231 76.265 583.136 76.364 A 2.339 2.339 0 0 1 583.101 76.4 A 2.696 2.696 0 0 1 582.892 76.588 Q 582.778 76.68 582.643 76.772 A 4.572 4.572 0 0 1 582.601 76.8 Q 581.501 77.9 580.201 78.7 Q 578.901 79.5 577.501 80 A 29.024 29.024 0 0 1 576.29 80.336 A 24.066 24.066 0 0 1 575.601 80.5 Q 574.701 80.7 573.801 80.7 Q 569.401 80.7 566.501 77.05 A 12.932 12.932 0 0 1 564.044 71.803 Q 563.601 69.866 563.601 67.6 Q 563.601 57.5 570.451 49.25 A 28.612 28.612 0 0 1 574.874 44.9 Q 578.091 42.402 581.588 41.504 A 16.077 16.077 0 0 1 585.601 41 A 14.004 14.004 0 0 1 589.376 41.497 A 12.537 12.537 0 0 1 590.951 42.05 Q 593.401 43.1 595.301 45.3 Q 597.527 43.734 598.971 42.882 A 21.115 21.115 0 0 1 599.551 42.55 A 13.03 13.03 0 0 1 600.971 41.874 Q 601.745 41.565 602.478 41.405 A 8.187 8.187 0 0 1 602.501 41.4 Q 602.901 41.3 603.401 41.25 Q 603.901 41.2 604.401 41.2 Q 606.221 41.2 607.379 42.07 A 3.841 3.841 0 0 1 607.601 42.25 A 3.435 3.435 0 0 1 608.795 44.764 A 4.63 4.63 0 0 1 608.801 45 A 4.84 4.84 0 0 1 608.796 45.207 Q 608.786 45.44 608.756 45.755 A 16.506 16.506 0 0 1 608.751 45.8 Q 608.704 46.268 608.526 46.824 A 7.074 7.074 0 0 1 608.501 46.9 Z M 702.301 46.9 L 698.601 63.5 Q 698.316 64.735 698.167 65.564 A 22.33 22.33 0 0 0 698.151 65.65 A 13.911 13.911 0 0 0 698.072 66.147 Q 698.001 66.656 698.001 67 Q 697.903 67.98 698.765 68.816 A 3.793 3.793 0 0 0 698.801 68.85 Q 699.701 69.7 700.901 69.7 A 5.693 5.693 0 0 0 701.382 69.681 A 4.731 4.731 0 0 0 701.651 69.65 A 3.926 3.926 0 0 0 702.099 69.56 A 3.326 3.326 0 0 0 702.301 69.5 A 1.359 1.359 0 0 0 702.467 69.491 Q 702.567 69.478 702.651 69.45 A 1.966 1.966 0 0 0 702.771 69.406 Q 702.876 69.363 703.001 69.3 Q 703.801 69 704.401 68.85 Q 704.817 68.746 705.136 68.714 A 2.674 2.674 0 0 1 705.401 68.7 A 1.312 1.312 0 0 1 706.16 68.947 A 2.005 2.005 0 0 1 706.501 69.25 A 1.945 1.945 0 0 1 706.88 69.848 A 1.768 1.768 0 0 1 707.001 70.5 A 3.009 3.009 0 0 1 706.891 71.283 Q 706.767 71.746 706.501 72.25 A 5.76 5.76 0 0 1 705.853 73.217 Q 705.486 73.664 705.001 74.1 L 704.451 74.65 Q 704.201 74.9 703.901 75.1 Q 702.001 76.8 699.751 78 A 21.248 21.248 0 0 1 696.062 79.554 A 19.301 19.301 0 0 1 695.201 79.8 Q 694.001 80.1 692.751 80.3 A 15.503 15.503 0 0 1 690.32 80.5 A 14.183 14.183 0 0 1 690.301 80.5 A 9.407 9.407 0 0 1 687.495 80.1 A 7.589 7.589 0 0 1 684.401 78.25 A 7.558 7.558 0 0 1 682.121 73.145 A 10.143 10.143 0 0 1 682.101 72.5 L 682.101 71.45 Q 682.101 70.978 682.175 70.394 A 12.243 12.243 0 0 1 682.201 70.2 Q 680.401 72.4 679.501 73.55 A 26.659 26.659 0 0 1 678.733 74.489 Q 678.342 74.945 677.971 75.328 A 15.137 15.137 0 0 1 677.801 75.5 A 1.348 1.348 0 0 1 677.697 75.594 Q 677.64 75.64 677.572 75.686 A 2.288 2.288 0 0 1 677.551 75.7 A 2.009 2.009 0 0 0 677.43 75.788 Q 677.369 75.835 677.319 75.883 A 1.169 1.169 0 0 0 677.301 75.9 A 4.019 4.019 0 0 1 677.126 76.144 Q 677.031 76.265 676.936 76.364 A 2.339 2.339 0 0 1 676.901 76.4 A 2.696 2.696 0 0 1 676.692 76.588 Q 676.578 76.68 676.443 76.772 A 4.572 4.572 0 0 1 676.401 76.8 Q 675.301 77.9 674.001 78.7 Q 672.701 79.5 671.301 80 A 29.024 29.024 0 0 1 670.09 80.336 A 24.066 24.066 0 0 1 669.401 80.5 Q 668.501 80.7 667.601 80.7 Q 663.201 80.7 660.301 77.05 A 12.932 12.932 0 0 1 657.844 71.803 Q 657.401 69.866 657.401 67.6 Q 657.401 57.5 664.251 49.25 A 28.612 28.612 0 0 1 668.674 44.9 Q 671.891 42.402 675.388 41.504 A 16.077 16.077 0 0 1 679.401 41 A 14.004 14.004 0 0 1 683.176 41.497 A 12.537 12.537 0 0 1 684.751 42.05 Q 687.201 43.1 689.101 45.3 Q 691.327 43.734 692.771 42.882 A 21.115 21.115 0 0 1 693.351 42.55 A 13.03 13.03 0 0 1 694.771 41.874 Q 695.545 41.565 696.278 41.405 A 8.187 8.187 0 0 1 696.301 41.4 Q 696.701 41.3 697.201 41.25 Q 697.701 41.2 698.201 41.2 Q 700.021 41.2 701.179 42.07 A 3.841 3.841 0 0 1 701.401 42.25 A 3.435 3.435 0 0 1 702.595 44.764 A 4.63 4.63 0 0 1 702.601 45 A 4.84 4.84 0 0 1 702.596 45.207 Q 702.586 45.44 702.556 45.755 A 16.506 16.506 0 0 1 702.551 45.8 Q 702.504 46.268 702.326 46.824 A 7.074 7.074 0 0 1 702.301 46.9 Z M 774.801 65.3 L 774.801 65.8 A 4.023 4.023 0 0 0 775.079 67.319 A 3.718 3.718 0 0 0 776.251 68.85 A 5.222 5.222 0 0 0 778.596 69.887 A 7.23 7.23 0 0 0 779.901 70 A 10.135 10.135 0 0 0 780.985 69.938 Q 781.776 69.853 782.701 69.65 A 16.932 16.932 0 0 0 785.601 68.728 A 18.81 18.81 0 0 0 785.901 68.6 Q 786.501 68.4 787.101 68.15 Q 787.701 67.9 788.301 67.6 L 788.601 67.45 Q 788.695 67.403 788.789 67.313 A 1.106 1.106 0 0 0 788.801 67.3 Q 788.965 67.219 789.428 66.97 A 131.782 131.782 0 0 0 789.651 66.85 Q 790.259 66.523 792.663 65.013 A 376.702 376.702 0 0 0 793.001 64.8 Q 793.401 64.6 793.801 64.45 Q 794.201 64.3 794.601 64.2 A 0.963 0.963 0 0 1 794.826 64.119 A 0.817 0.817 0 0 1 795.001 64.1 L 795.401 64.1 A 2.735 2.735 0 0 1 796.183 64.207 A 2.178 2.178 0 0 1 797.051 64.7 A 1.95 1.95 0 0 1 797.624 65.703 Q 797.701 66.021 797.701 66.397 A 3.633 3.633 0 0 1 797.701 66.4 A 4.346 4.346 0 0 1 797.443 67.831 Q 797.239 68.416 796.875 69.036 A 10.016 10.016 0 0 1 796.301 69.9 Q 795.233 71.35 793.465 72.917 A 33.301 33.301 0 0 1 792.301 73.9 A 38.639 38.639 0 0 1 787.023 77.356 A 31.768 31.768 0 0 1 783.351 79.05 Q 778.801 80.8 774.201 80.8 A 21.015 21.015 0 0 1 768.48 80.058 A 16.217 16.217 0 0 1 761.751 76.3 A 14.939 14.939 0 0 1 756.977 66.281 A 20.495 20.495 0 0 1 756.901 64.5 A 20.86 20.86 0 0 1 762.561 50.178 A 29.252 29.252 0 0 1 764.851 47.9 Q 772.801 40.8 783.401 40.8 A 18.359 18.359 0 0 1 787.542 41.243 A 12.931 12.931 0 0 1 792.751 43.7 A 9.747 9.747 0 0 1 795.341 46.735 Q 796.401 48.721 796.401 51.2 A 10.048 10.048 0 0 1 793.542 58.211 Q 792.323 59.528 790.585 60.695 A 21.517 21.517 0 0 1 790.351 60.85 Q 784.963 64.368 776.838 65.15 A 47.186 47.186 0 0 1 774.801 65.3 Z M 614.201 79.5 L 614.401 79.2 L 620.101 53.1 Q 620.201 52.7 620.251 52.3 Q 620.301 51.9 620.301 51.5 Q 620.401 51.2 620.401 50.8 L 620.401 50 A 6.541 6.541 0 0 0 620.374 49.387 Q 620.346 49.086 620.287 48.833 A 2.713 2.713 0 0 0 620.151 48.4 Q 619.933 47.875 619.369 47.427 A 4.037 4.037 0 0 0 619.201 47.3 Q 619.001 47.1 618.801 46.95 Q 618.664 46.847 618.479 46.72 A 16.164 16.164 0 0 0 618.301 46.6 A 23.451 23.451 0 0 1 620.553 44.884 A 27.823 27.823 0 0 1 621.701 44.15 Q 623.601 43 625.601 42.2 A 24.497 24.497 0 0 1 628.266 41.366 A 22.027 22.027 0 0 1 628.751 41.25 A 15.149 15.149 0 0 1 630.238 40.988 A 11.191 11.191 0 0 1 631.601 40.9 A 8.771 8.771 0 0 1 633.317 41.058 Q 634.752 41.345 635.751 42.15 A 4.076 4.076 0 0 1 637.28 45.098 A 5.8 5.8 0 0 1 637.301 45.6 L 637.301 45.8 L 637.301 46 Q 637.301 46.382 637.21 46.991 A 13.842 13.842 0 0 1 637.201 47.05 Q 637.109 47.649 636.932 48.968 A 323.219 323.219 0 0 0 636.901 49.2 Q 639.101 47.1 640.051 46.25 Q 641.001 45.4 641.701 44.8 A 0.319 0.319 0 0 0 641.758 44.796 Q 641.788 44.79 641.813 44.778 A 0.148 0.148 0 0 0 641.851 44.75 L 641.901 44.7 Q 642.101 44.5 642.301 44.35 Q 642.439 44.247 642.624 44.12 A 16.164 16.164 0 0 1 642.801 44 A 16.787 16.787 0 0 1 644.414 43.006 A 19.388 19.388 0 0 1 645.001 42.7 A 12.041 12.041 0 0 1 646.876 41.946 A 10.73 10.73 0 0 1 647.401 41.8 A 16.742 16.742 0 0 1 648.605 41.485 A 13.672 13.672 0 0 1 649.301 41.35 Q 650.201 41.2 651.001 41.2 A 9.389 9.389 0 0 1 653.361 41.481 A 6.773 6.773 0 0 1 656.451 43.2 A 6.705 6.705 0 0 1 658.451 47.43 A 9.179 9.179 0 0 1 658.501 48.4 Q 658.501 53 655.351 56.45 A 11.65 11.65 0 0 1 652.8 58.586 A 8.904 8.904 0 0 1 648.101 59.9 Q 645.801 59.9 644.001 58.45 A 5.757 5.757 0 0 1 643.014 57.45 A 3.809 3.809 0 0 1 642.201 55.1 A 4.142 4.142 0 0 1 642.217 54.747 A 5.3 5.3 0 0 1 642.251 54.45 A 11.199 11.199 0 0 1 642.296 54.167 Q 642.317 54.04 642.344 53.898 A 22.859 22.859 0 0 1 642.401 53.6 A 18.145 18.145 0 0 0 638.103 57.005 A 16.357 16.357 0 0 0 636.401 59.2 Q 634.691 61.843 633.525 65.816 A 42.925 42.925 0 0 0 632.901 68.2 L 632.001 72.3 L 630.601 79.5 L 614.201 79.5 Z M 93.301 69.6 L 96.801 53.3 A 36.508 36.508 0 0 0 96.937 52.585 Q 97.039 52.019 97.101 51.55 A 11.216 11.216 0 0 0 97.198 50.364 A 10.001 10.001 0 0 0 97.201 50.1 Q 97.201 49 96.651 48.15 Q 96.101 47.3 95.001 46.7 A 34.469 34.469 0 0 1 98.25 44.3 Q 100.072 43.121 101.851 42.35 Q 105.201 40.9 108.301 40.9 A 8.736 8.736 0 0 1 109.959 41.048 Q 111.417 41.33 112.401 42.15 Q 113.901 43.4 114.001 45.6 L 114.001 46.65 Q 114.001 47.2 113.801 47.7 L 110.401 63.6 Q 110.401 63.8 110.351 64 Q 110.301 64.2 110.201 64.4 Q 110.101 64.9 110.051 65.4 A 13.885 13.885 0 0 0 110.025 65.693 Q 110.001 65.994 110.001 66.2 A 5.189 5.189 0 0 0 110.102 67.256 Q 110.286 68.138 110.801 68.75 A 2.619 2.619 0 0 0 112.578 69.677 A 3.744 3.744 0 0 0 113.001 69.7 L 113.351 69.7 L 113.601 69.7 Q 113.901 69.6 114.251 69.5 A 5.306 5.306 0 0 0 114.455 69.438 Q 114.65 69.374 114.783 69.309 A 1.552 1.552 0 0 0 114.801 69.3 Q 115.482 68.998 116.019 68.81 A 9.193 9.193 0 0 1 116.351 68.7 Q 116.954 68.515 117.342 68.501 A 1.712 1.712 0 0 1 117.401 68.5 A 1.157 1.157 0 0 1 117.992 68.667 Q 118.175 68.774 118.351 68.95 Q 118.801 69.4 118.801 70.2 Q 118.801 70.926 118.411 71.782 A 6.544 6.544 0 0 1 118.201 72.2 A 10.24 10.24 0 0 1 117.4 73.438 A 13.272 13.272 0 0 1 116.601 74.4 Q 116.001 74.9 115.401 75.45 A 8.782 8.782 0 0 1 114.596 76.102 A 10.977 10.977 0 0 1 114.001 76.5 Q 112.901 77.2 111.751 77.8 A 47.444 47.444 0 0 1 110.054 78.644 A 42.644 42.644 0 0 1 109.501 78.9 Q 107.601 79.6 105.801 80 A 17.256 17.256 0 0 1 103.84 80.324 A 13.944 13.944 0 0 1 102.401 80.4 A 12.245 12.245 0 0 1 99.309 80.029 A 9.12 9.12 0 0 1 95.651 78.15 A 7.235 7.235 0 0 1 93.018 72.868 A 9.361 9.361 0 0 1 93.001 72.3 A 7.195 7.195 0 0 1 93.021 71.781 A 8.664 8.664 0 0 1 93.051 71.45 Q 93.101 71 93.101 70.5 A 1.668 1.668 0 0 0 93.211 70.216 A 2.045 2.045 0 0 0 93.251 70.05 A 2.842 2.842 0 0 0 93.285 69.841 Q 93.301 69.713 93.301 69.6 Z M 112.336 22.339 A 10.775 10.775 0 0 0 110.001 22.1 Q 105.701 22.1 102.551 24.8 A 11.195 11.195 0 0 0 101.686 25.624 A 7.898 7.898 0 0 0 99.401 31.2 A 7.844 7.844 0 0 0 99.406 31.462 A 5.936 5.936 0 0 0 101.351 35.8 A 6.529 6.529 0 0 0 104.114 37.314 A 8.71 8.71 0 0 0 106.401 37.6 Q 110.901 37.6 114.301 34.9 A 13.805 13.805 0 0 0 114.522 34.721 Q 115.569 33.854 116.272 32.915 A 6.735 6.735 0 0 0 117.701 28.8 A 8.238 8.238 0 0 0 117.691 28.384 A 6.073 6.073 0 0 0 115.601 23.95 A 6.734 6.734 0 0 0 115.256 23.666 Q 114.016 22.712 112.336 22.339 Z M 587.436 46.891 A 1.359 1.359 0 0 0 587.601 46.9 A 1.469 1.469 0 0 1 588.095 47.204 Q 588.579 47.649 588.854 48.596 A 7.472 7.472 0 0 1 589.051 49.5 Q 589.324 51.215 589.08 53.78 A 35.376 35.376 0 0 1 588.901 55.3 Q 588.001 61.6 586.051 66.3 Q 584.101 71 582.501 70.7 Q 581.301 70.6 580.901 68.25 A 11.936 11.936 0 0 1 580.774 67.217 Q 580.657 65.785 580.811 63.976 A 31.947 31.947 0 0 1 581.001 62.3 A 3.346 3.346 0 0 1 581.002 62.258 Q 581.005 61.993 581.051 61.9 Q 581.087 61.828 581.097 61.705 A 1.287 1.287 0 0 0 581.101 61.6 A 45.692 45.692 0 0 1 581.849 57.698 A 36.624 36.624 0 0 1 583.751 51.85 A 36.708 36.708 0 0 1 584.062 51.139 Q 585.728 47.441 587.101 46.8 L 587.251 46.85 Q 587.336 46.878 587.436 46.891 Z M 681.236 46.891 A 1.359 1.359 0 0 0 681.401 46.9 A 1.469 1.469 0 0 1 681.895 47.204 Q 682.379 47.649 682.654 48.596 A 7.472 7.472 0 0 1 682.851 49.5 Q 683.124 51.215 682.88 53.78 A 35.376 35.376 0 0 1 682.701 55.3 Q 681.801 61.6 679.851 66.3 Q 677.901 71 676.301 70.7 Q 675.101 70.6 674.701 68.25 A 11.936 11.936 0 0 1 674.574 67.217 Q 674.457 65.785 674.611 63.976 A 31.947 31.947 0 0 1 674.801 62.3 A 3.346 3.346 0 0 1 674.802 62.258 Q 674.805 61.993 674.851 61.9 Q 674.887 61.828 674.897 61.705 A 1.287 1.287 0 0 0 674.901 61.6 A 45.692 45.692 0 0 1 675.649 57.698 A 36.624 36.624 0 0 1 677.551 51.85 A 36.708 36.708 0 0 1 677.862 51.139 Q 679.528 47.441 680.901 46.8 L 681.051 46.85 Q 681.136 46.878 681.236 46.891 Z M 221.236 48.491 A 1.359 1.359 0 0 0 221.401 48.5 A 1.469 1.469 0 0 1 221.895 48.804 Q 222.379 49.249 222.654 50.196 A 7.472 7.472 0 0 1 222.851 51.1 Q 223.124 52.815 222.88 55.38 A 35.376 35.376 0 0 1 222.701 56.9 Q 221.801 63.2 219.851 67.9 Q 217.901 72.6 216.301 72.3 Q 215.101 72.2 214.701 69.85 A 11.936 11.936 0 0 1 214.574 68.817 Q 214.457 67.385 214.611 65.576 A 31.947 31.947 0 0 1 214.801 63.9 A 3.346 3.346 0 0 1 214.802 63.858 Q 214.805 63.593 214.851 63.5 Q 214.887 63.428 214.897 63.305 A 1.287 1.287 0 0 0 214.901 63.2 A 45.692 45.692 0 0 1 215.649 59.298 A 36.624 36.624 0 0 1 217.551 53.45 A 36.708 36.708 0 0 1 217.862 52.739 Q 219.528 49.041 220.901 48.4 L 221.051 48.45 Q 221.136 48.478 221.236 48.491 Z M 734.436 47.291 A 1.359 1.359 0 0 0 734.601 47.3 A 1.469 1.469 0 0 1 735.095 47.604 Q 735.579 48.049 735.854 48.996 A 7.472 7.472 0 0 1 736.051 49.9 Q 736.324 51.615 736.08 54.18 A 35.376 35.376 0 0 1 735.901 55.7 Q 735.001 62 733.051 66.7 Q 731.101 71.4 729.501 71.1 Q 728.301 71 727.901 68.65 A 11.936 11.936 0 0 1 727.774 67.617 Q 727.657 66.185 727.811 64.376 A 31.947 31.947 0 0 1 728.001 62.7 A 3.346 3.346 0 0 1 728.002 62.658 Q 728.005 62.393 728.051 62.3 Q 728.087 62.228 728.097 62.105 A 1.287 1.287 0 0 0 728.101 62 A 45.692 45.692 0 0 1 728.849 58.098 A 36.624 36.624 0 0 1 730.751 52.25 A 36.708 36.708 0 0 1 731.062 51.539 Q 732.728 47.841 734.101 47.2 L 734.251 47.25 Q 734.336 47.278 734.436 47.291 Z M 536.601 28.2 Q 537.201 28.4 537.701 28.55 Q 538.073 28.662 538.334 28.801 A 1.978 1.978 0 0 1 538.501 28.9 Q 540.597 29.686 542.221 30.172 A 28.976 28.976 0 0 0 543.801 30.6 Q 545.901 31.1 547.701 31.1 Q 549.401 31.1 550.351 30.3 A 2.579 2.579 0 0 0 551.294 28.42 A 3.39 3.39 0 0 0 551.301 28.2 A 1.842 1.842 0 0 0 550.776 26.92 Q 550.414 26.527 549.801 26.2 Q 548.526 25.52 546.673 25.418 A 12.23 12.23 0 0 0 546.001 25.4 Q 544.126 25.4 541.9 26.015 A 21.841 21.841 0 0 0 541.601 26.1 A 23.231 23.231 0 0 0 538.838 27.109 A 29.881 29.881 0 0 0 536.601 28.2 Z M 775.801 56.3 A 34.303 34.303 0 0 0 777.937 55.923 Q 779.984 55.49 781.293 54.885 A 7.764 7.764 0 0 0 781.851 54.6 Q 783.093 53.9 783.544 52.956 A 2.646 2.646 0 0 0 783.801 51.8 A 2.735 2.735 0 0 0 783.694 51.019 A 2.178 2.178 0 0 0 783.201 50.15 Q 782.601 49.5 781.701 49.5 A 4.063 4.063 0 0 0 779.39 50.239 Q 778.817 50.626 778.278 51.215 A 8.031 8.031 0 0 0 778.201 51.3 A 9.025 9.025 0 0 0 776.916 53.219 Q 776.45 54.134 776.098 55.247 A 17.816 17.816 0 0 0 775.801 56.3 Z" vector-effect="non-scaling-stroke"/></g></svg>
